<svg width="368" height="73" viewBox="0 0 368 73" fill="none" xmlns="http://www.w3.org/2000/svg">
<path d="M109.98 60.14C106.02 60.14 102.58 59.44 99.66 58.04C96.78 56.64 94.38 54.82 92.46 52.58C90.58 50.3 89.16 47.86 88.2 45.26C87.28 42.62 86.82 40.08 86.82 37.64V36.32C86.82 33.64 87.3 30.98 88.26 28.34C89.22 25.66 90.66 23.24 92.58 21.08C94.54 18.92 96.96 17.2 99.84 15.92C102.72 14.6 106.1 13.94 109.98 13.94C113.82 13.94 117.18 14.6 120.06 15.92C122.94 17.2 125.34 18.92 127.26 21.08C129.22 23.24 130.68 25.66 131.64 28.34C132.6 30.98 133.08 33.64 133.08 36.32V37.64C133.08 40.08 132.6 42.62 131.64 45.26C130.72 47.86 129.3 50.3 127.38 52.58C125.5 54.82 123.1 56.64 120.18 58.04C117.3 59.44 113.9 60.14 109.98 60.14ZM109.98 52.22C112.22 52.22 114.22 51.82 115.98 51.02C117.78 50.22 119.3 49.12 120.54 47.72C121.82 46.28 122.78 44.66 123.42 42.86C124.1 41.02 124.44 39.08 124.44 37.04C124.44 34.84 124.1 32.82 123.42 30.98C122.78 29.14 121.82 27.54 120.54 26.18C119.3 24.82 117.78 23.76 115.98 23C114.18 22.24 112.18 21.86 109.98 21.86C107.74 21.86 105.72 22.24 103.92 23C102.12 23.76 100.58 24.82 99.3 26.18C98.06 27.54 97.1 29.14 96.42 30.98C95.78 32.82 95.46 34.84 95.46 37.04C95.46 39.08 95.78 41.02 96.42 42.86C97.1 44.66 98.06 46.28 99.3 47.72C100.58 49.12 102.12 50.22 103.92 51.02C105.72 51.82 107.74 52.22 109.98 52.22ZM155.114 60.14C152.274 60.14 149.814 59.66 147.734 58.7C145.694 57.74 143.974 56.46 142.574 54.86C141.214 53.26 140.194 51.46 139.514 49.46C138.834 47.46 138.494 45.42 138.494 43.34V42.2C138.494 40 138.834 37.9 139.514 35.9C140.234 33.86 141.294 32.06 142.694 30.5C144.094 28.9 145.814 27.64 147.854 26.72C149.934 25.76 152.334 25.28 155.054 25.28C157.894 25.28 160.434 25.84 162.674 26.96C164.914 28.04 166.694 29.56 168.014 31.52C169.374 33.48 170.134 35.76 170.294 38.36H162.194C161.994 36.68 161.274 35.28 160.034 34.16C158.834 33.04 157.174 32.48 155.054 32.48C153.214 32.48 151.674 32.92 150.434 33.8C149.234 34.68 148.334 35.9 147.734 37.46C147.134 38.98 146.834 40.74 146.834 42.74C146.834 44.66 147.114 46.4 147.674 47.96C148.274 49.52 149.174 50.74 150.374 51.62C151.614 52.5 153.194 52.94 155.114 52.94C156.554 52.94 157.794 52.68 158.834 52.16C159.874 51.64 160.694 50.92 161.294 50C161.934 49.08 162.334 48.04 162.494 46.88H170.594C170.434 49.52 169.654 51.84 168.254 53.84C166.894 55.8 165.074 57.34 162.794 58.46C160.554 59.58 157.994 60.14 155.114 60.14ZM191.435 59.42C188.435 59.42 185.955 59.04 183.995 58.28C182.075 57.48 180.635 56.16 179.675 54.32C178.715 52.44 178.235 49.92 178.235 46.76L178.295 17.24H186.095L186.035 47.3C186.035 48.9 186.455 50.14 187.295 51.02C188.175 51.86 189.415 52.28 191.015 52.28H196.115V59.42H191.435ZM173.075 32.54V26.42H196.115V32.54H173.075ZM218.599 60.14C215.719 60.14 213.179 59.68 210.979 58.76C208.779 57.84 206.919 56.6 205.399 55.04C203.879 53.44 202.719 51.64 201.919 49.64C201.159 47.64 200.779 45.56 200.779 43.4V42.14C200.779 39.9 201.179 37.78 201.979 35.78C202.819 33.74 203.999 31.94 205.519 30.38C207.079 28.78 208.959 27.54 211.159 26.66C213.359 25.74 215.839 25.28 218.599 25.28C221.359 25.28 223.839 25.74 226.039 26.66C228.239 27.54 230.099 28.78 231.619 30.38C233.179 31.94 234.359 33.74 235.159 35.78C235.959 37.78 236.359 39.9 236.359 42.14V43.4C236.359 45.56 235.959 47.64 235.159 49.64C234.399 51.64 233.259 53.44 231.739 55.04C230.219 56.6 228.359 57.84 226.159 58.76C223.959 59.68 221.439 60.14 218.599 60.14ZM218.599 53C220.639 53 222.359 52.56 223.759 51.68C225.159 50.76 226.219 49.54 226.939 48.02C227.659 46.46 228.019 44.7 228.019 42.74C228.019 40.74 227.639 38.98 226.879 37.46C226.159 35.9 225.079 34.68 223.639 33.8C222.239 32.88 220.559 32.42 218.599 32.42C216.639 32.42 214.939 32.88 213.499 33.8C212.099 34.68 211.019 35.9 210.259 37.46C209.499 38.98 209.119 40.74 209.119 42.74C209.119 44.7 209.479 46.46 210.199 48.02C210.959 49.54 212.039 50.76 213.439 51.68C214.839 52.56 216.559 53 218.599 53ZM244.082 59V15.2H252.422V59H244.082ZM240.002 21.44V15.2H252.422V21.44H240.002ZM276.523 60.14C273.723 60.14 271.263 59.66 269.143 58.7C267.063 57.74 265.323 56.46 263.923 54.86C262.563 53.22 261.523 51.4 260.803 49.4C260.123 47.4 259.783 45.36 259.783 43.28V42.14C259.783 39.98 260.123 37.9 260.803 35.9C261.523 33.86 262.563 32.06 263.923 30.5C265.323 28.9 267.043 27.64 269.083 26.72C271.123 25.76 273.483 25.28 276.163 25.28C279.683 25.28 282.623 26.06 284.983 27.62C287.383 29.14 289.183 31.16 290.383 33.68C291.583 36.16 292.183 38.84 292.183 41.72V44.72H263.323V39.62H286.963L284.383 42.14C284.383 40.06 284.083 38.28 283.483 36.8C282.883 35.32 281.963 34.18 280.723 33.38C279.523 32.58 278.003 32.18 276.163 32.18C274.323 32.18 272.763 32.6 271.483 33.44C270.203 34.28 269.223 35.5 268.543 37.1C267.903 38.66 267.583 40.54 267.583 42.74C267.583 44.78 267.903 46.6 268.543 48.2C269.183 49.76 270.163 51 271.483 51.92C272.803 52.8 274.483 53.24 276.523 53.24C278.563 53.24 280.223 52.84 281.503 52.04C282.783 51.2 283.603 50.18 283.963 48.98H291.643C291.163 51.22 290.243 53.18 288.883 54.86C287.523 56.54 285.783 57.84 283.663 58.76C281.583 59.68 279.203 60.14 276.523 60.14ZM299.15 59V26.42H305.75V40.4H305.15C305.15 37.08 305.59 34.32 306.47 32.12C307.35 29.88 308.65 28.2 310.37 27.08C312.13 25.96 314.31 25.4 316.91 25.4H317.27C321.15 25.4 324.09 26.66 326.09 29.18C328.09 31.66 329.09 35.38 329.09 40.34V59H320.75V39.62C320.75 37.62 320.17 36 319.01 34.76C317.89 33.52 316.33 32.9 314.33 32.9C312.29 32.9 310.63 33.54 309.35 34.82C308.11 36.06 307.49 37.74 307.49 39.86V59H299.15ZM349.876 60.02C345.396 60.02 341.876 59.08 339.316 57.2C336.796 55.28 335.476 52.64 335.356 49.28H342.856C342.976 50.4 343.596 51.42 344.716 52.34C345.836 53.26 347.596 53.72 349.996 53.72C351.996 53.72 353.576 53.36 354.736 52.64C355.936 51.92 356.536 50.94 356.536 49.7C356.536 48.62 356.076 47.76 355.156 47.12C354.276 46.48 352.756 46.06 350.596 45.86L347.716 45.56C344.076 45.16 341.276 44.12 339.316 42.44C337.356 40.76 336.376 38.52 336.376 35.72C336.376 33.48 336.936 31.6 338.056 30.08C339.176 28.56 340.716 27.42 342.676 26.66C344.676 25.86 346.956 25.46 349.516 25.46C353.516 25.46 356.756 26.34 359.236 28.1C361.716 29.86 363.016 32.44 363.136 35.84H355.636C355.556 34.72 354.996 33.76 353.956 32.96C352.916 32.16 351.416 31.76 349.456 31.76C347.696 31.76 346.336 32.1 345.376 32.78C344.416 33.46 343.936 34.34 343.936 35.42C343.936 36.46 344.316 37.26 345.076 37.82C345.876 38.38 347.156 38.76 348.916 38.96L351.796 39.26C355.636 39.66 358.636 40.72 360.796 42.44C362.996 44.16 364.096 46.48 364.096 49.4C364.096 51.56 363.496 53.44 362.296 55.04C361.136 56.6 359.496 57.82 357.376 58.7C355.256 59.58 352.756 60.02 349.876 60.02Z" fill="black"/>
<path d="M20.2505 24.3022C26.3261 34.4281 20.2505 45.9554 14.175 43.9303C8.09947 41.9051 6.0743 47.9806 12.1498 50.0058C18.2254 52.031 31.3181 49.0641 38.4771 41.9051C40.5023 39.8799 42.5275 39.8799 42.5275 39.8799L20.2505 24.3022Z" fill="#553788"/>
<path d="M52.6534 24.3022C46.5779 34.4281 52.6534 45.9554 58.7289 43.9303C64.8045 41.9051 66.8296 47.9806 60.7541 50.0058C54.6786 52.031 41.5858 49.0641 34.4268 41.9051C32.4016 39.8799 30.3764 39.8799 30.3764 39.8799L52.6534 24.3022Z" fill="#553788"/>
<path d="M61.1348 32.4028C55.0593 42.5287 61.1348 54.056 67.2104 52.0309C73.2859 50.0057 75.3111 56.0812 69.2355 58.1064C63.16 60.1316 50.0672 57.1647 42.9082 50.0057C40.8831 47.9805 38.8579 47.9805 38.8579 47.9805L61.1348 32.4028ZM11.7691 32.4028C17.8446 42.5287 11.7691 54.056 5.69356 52.0309C-0.381972 50.0057 -2.40715 56.0812 3.66838 58.1064C9.74392 60.1316 22.8367 57.1647 29.9957 50.0057C32.0209 47.9805 34.0461 47.9805 34.0461 47.9805L11.7691 32.4028Z" fill="#744EAA"/>
<path d="M67.2104 63.54C61.6837 65.3829 54.1986 52.1463 57.4652 42.1176C60.7987 35.55 62.7793 28.231 62.7793 22.277C62.7793 7.73618 50.9927 0 36.452 0C21.9112 0 10.1247 7.73618 10.1247 22.277C10.1247 28.231 12.1053 35.55 15.4387 42.1176C18.7053 52.1463 11.2203 65.3829 5.69356 63.54C-0.381972 61.5148 -2.40715 69.6155 3.66838 71.6407C9.74392 73.6658 20.4976 70.3709 27.9705 63.54C32.4036 59.4896 36.454 59.4896 36.454 59.4896C36.454 59.4896 40.5043 59.4896 44.9354 63.54C52.4083 70.3709 63.162 73.6658 69.2376 71.6407C75.3131 69.6155 73.2859 61.5148 67.2104 63.54Z" fill="#9266CC"/>
<path d="M28.3513 46.5792C30.5882 46.5792 32.4016 44.7658 32.4016 42.5289C32.4016 40.2919 30.5882 38.4785 28.3513 38.4785C26.1143 38.4785 24.3009 40.2919 24.3009 42.5289C24.3009 44.7658 26.1143 46.5792 28.3513 46.5792Z" fill="#292F33"/>
<path d="M44.5527 46.5792C46.7896 46.5792 48.603 44.7658 48.603 42.5289C48.603 40.2919 46.7896 38.4785 44.5527 38.4785C42.3157 38.4785 40.5023 40.2919 40.5023 42.5289C40.5023 44.7658 42.3157 46.5792 44.5527 46.5792Z" fill="#292F33"/>
</svg>
